<?xml version="1.0" standalone="no"?>
<!DOCTYPE svg PUBLIC "-//W3C//DTD SVG 20010904//EN"
 "http://www.w3.org/TR/2001/REC-SVG-20010904/DTD/svg10.dtd">
<svg version="1.0" xmlns="http://www.w3.org/2000/svg"
 width="127.000000pt" height="127.000000pt" viewBox="0 0 127.000000 127.000000"
 preserveAspectRatio="xMidYMid meet">
<metadata>
Created by potrace 1.11, written by Peter Selinger 2001-2013
</metadata>
<g transform="translate(0.000000,127.000000) scale(0.100000,-0.100000)"
fill="#000000" stroke="none">
<path d="M590 931 c-31 -4 -41 -18 -30 -46 12 -33 0 -42 -59 -49 -30 -3 -59
-10 -65 -14 -6 -4 -24 -9 -41 -10 -16 -2 -37 -12 -46 -22 -9 -11 -18 -18 -20
-17 -2 1 -3 0 -2 -2 2 -2 -2 -10 -7 -16 -21 -25 -14 -119 14 -176 14 -30 26
-51 26 -46 0 4 8 -1 18 -10 11 -10 17 -21 15 -25 -2 -5 0 -8 4 -8 5 0 26 -16
47 -35 21 -19 45 -35 52 -35 8 0 14 -4 14 -10 0 -5 9 -10 19 -10 10 0 21 -6
24 -13 4 -10 -11 -13 -57 -15 -33 -1 -83 -4 -111 -8 -27 -3 -60 -7 -72 -8 -13
0 -23 -6 -23 -13 0 -15 33 -26 85 -28 22 0 45 -4 50 -7 13 -7 377 -5 390 2 6
3 29 5 53 4 23 0 42 3 42 8 0 5 9 6 20 3 12 -4 20 -2 20 5 0 6 4 8 10 5 5 -3
8 0 5 7 -3 7 -17 14 -31 14 -36 3 -42 13 -18 33 39 31 54 140 25 175 -6 7 -8
16 -4 19 3 4 -3 15 -15 25 -12 11 -19 22 -15 26 3 3 2 6 -4 6 -12 0 -33 44
-33 70 0 15 -7 20 -30 21 -16 1 -40 1 -53 2 -12 1 -28 -2 -34 -6 -23 -14 -39
3 -38 41 0 20 5 43 9 51 7 10 5 12 -4 6 -10 -6 -11 -4 -4 6 5 8 9 33 10 57 1
36 -2 42 -20 43 -12 0 -37 1 -56 2 -19 1 -46 0 -60 -2z"/>
</g>
</svg>
